<?xml version="1.0" encoding="UTF-8"?>
<svg id="Layer_1" xmlns="http://www.w3.org/2000/svg" version="1.1" viewBox="0 0 200 200">
  <!-- Generator: Adobe Illustrator 29.0.0, SVG Export Plug-In . SVG Version: 2.1.0 Build 186)  -->
  <polygon points="65.3 80.6 99.6 60.8 133.9 80.6 133.9 80.6 116.7 90.5 116.7 110.3 133.9 100.4 144.3 94.4 151 90.5 151 70.7 151 70.7 99.6 41 48.2 70.7 48.2 130.1 65.3 140.1 65.3 120.2 65.3 120.2 65.3 80.6"/>
  <polygon points="133.9 120.2 133.9 120.2 99.6 140 99.6 79.9 82.5 90.5 82.5 130.2 82.5 147.9 82.5 150 99.3 159.9 151 130.1 151 110.4 151 110.4 151 100.5 133.9 110.4 133.9 120.2"/>
</svg>