<svg id="Layer_1" data-name="Layer 1" xmlns="http://www.w3.org/2000/svg" viewBox="0 0 566.93 566.93"><polygon points="127.14 192.6 284.11 101.97 441.08 192.6 441.08 192.6 362.59 237.91 362.59 328.54 441.08 283.22 488.77 255.69 519.56 237.91 519.56 147.28 519.56 147.29 284.11 11.35 48.66 147.29 48.66 419.16 127.14 464.91 127.14 374.06 127.14 374.06 127.14 192.6"/><polygon points="441.08 373.85 441.08 373.85 284.11 464.47 284.11 189.47 205.63 237.91 205.63 419.81 205.63 501.02 205.63 510.65 282.99 555.75 519.56 419.16 519.56 329.06 519.56 329.06 519.56 283.75 441.08 329.06 441.08 373.85"/></svg>